<svg xmlns="http://www.w3.org/2000/svg" viewBox="0 0 21.26 27.21"><defs><style>.cls-1{fill:#272453;}.cls-2{fill:#e6501b;}</style></defs><title>logout</title><g id="Layer_2" data-name="Layer 2"><g id="Layer_1-2" data-name="Layer 1"><path class="cls-1" d="M18.12,0H9.06A3.15,3.15,0,0,0,5.93,3.16v4.2a.65.65,0,0,0,1.29,0V3.17a1.9,1.9,0,0,1,.53-1.32A1.86,1.86,0,0,1,9.06,1.3h9.07A1.86,1.86,0,0,1,20,3.17V24a1.89,1.89,0,0,1-.53,1.32,1.91,1.91,0,0,1-1.31.56H9.06A1.86,1.86,0,0,1,7.22,24V19.88a.65.65,0,0,0-1.29,0V24a3.16,3.16,0,0,0,3.13,3.17h9.07A3.16,3.16,0,0,0,21.26,24V3.17A3.16,3.16,0,0,0,18.12,0"/><path class="cls-2" d="M10.89,13H2L3.52,11.2a.65.65,0,0,0-.07-.91.66.66,0,0,0-.91.08L.15,13.19l0,0v0l0,0,0,0a0,0,0,0,1,0,0,0,0,0,0,0,0,0l0,0a0,0,0,0,1,0,0v.06s0,0,0,0v0H0a.28.28,0,0,0,0,.13v.11s0,0,0,0a0,0,0,0,1,0,0l0,0s0,0,0,0a0,0,0,0,1,0,0l0,0,0,0v0h0l2.39,2.82a.65.65,0,1,0,1-.84L2,14.25h8.85a.65.65,0,1,0,0-1.29"/></g></g></svg>