<svg xmlns="http://www.w3.org/2000/svg" viewBox="0 0 29.04 25"><defs><style>.cls-1{fill:#E74F1B;}</style></defs><title>Asset 5</title><g id="Layer_2" data-name="Layer 2"><g id="Layer_1-2" data-name="Layer 1"><path class="cls-1" d="M29,14.47a.88.88,0,0,0-1.16-.42L17.37,18.91a3.78,3.78,0,0,0-2.94-1.42,3.84,3.84,0,0,0-.76.08L6.13,1.39,1.1,0A.87.87,0,0,0,0,.64.87.87,0,0,0,.64,1.71L4.89,2.86,12.1,18.3A3.75,3.75,0,0,0,14.43,25,3.83,3.83,0,0,0,16,24.65,3.78,3.78,0,0,0,18,22.53a3.73,3.73,0,0,0,.14-2l10.43-4.86A.88.88,0,0,0,29,14.47M16.32,21.93a2,2,0,0,1-1,1.14,2,2,0,0,1-.85.19,2,2,0,0,1-.85-3.84,1.92,1.92,0,0,1,.85-.19,2,2,0,0,1,1.82,1.16,2,2,0,0,1,.07,1.54"/><path class="cls-1" d="M15.43,16.82a.9.9,0,0,0,.49.45.79.79,0,0,0,.67,0l10-4.67a.94.94,0,0,0,.45-.49,1,1,0,0,0,0-.67L22.77,2.27a.87.87,0,0,0-1.16-.43l-10,4.68a.87.87,0,0,0-.42,1.16Zm6.13-13,3.53,7.57L16.64,15.3,13.11,7.73Z"/></g></g></svg>