<svg xmlns="http://www.w3.org/2000/svg" viewBox="0 0 72 93.02"><defs><style>.cls-1{fill:#E74F1C;}</style></defs><title>Asset 9</title><g id="Layer_2" data-name="Layer 2"><g id="Layer_1-2" data-name="Layer 1"><path class="cls-1" d="M70,60.43C67.09,56,58.76,53,50.62,51.28a24.58,24.58,0,0,1-29.21,0C13.25,53,4.9,56,2,60.43-2.48,67.24,2,93,2,93H70s4.48-25.78,0-32.59M36,83.26a3.86,3.86,0,1,1,3.85-3.86A3.85,3.85,0,0,1,36,83.26M36,70a3.86,3.86,0,1,1,3.85-3.86A3.86,3.86,0,0,1,36,70"/><path class="cls-1" d="M36,49.88A18.43,18.43,0,0,0,53.16,24.75H46.84a12.76,12.76,0,1,1-21.69,0H18.84A18.43,18.43,0,0,0,36,49.88"/><path class="cls-1" d="M50.54,2.86A2.89,2.89,0,0,0,47.59,0H24.49a2.85,2.85,0,0,0-2.91,2.86V20.55h29Z"/></g></g></svg>