<svg xmlns="http://www.w3.org/2000/svg" viewBox="0 0 25.78 25.77"><defs><style>.cls-1{fill:#E74F1B;}</style></defs><title>Asset 2</title><g id="Layer_2" data-name="Layer 2"><g id="Layer_1-2" data-name="Layer 1"><path class="cls-1" d="M23,0H2.76A2.77,2.77,0,0,0,0,2.76V23a2.76,2.76,0,0,0,2.76,2.76H23A2.76,2.76,0,0,0,25.78,23V2.76A2.77,2.77,0,0,0,23,0m.92,23a.92.92,0,0,1-.92.92H2.76A.92.92,0,0,1,1.84,23V2.76a.92.92,0,0,1,.92-.92H23a.92.92,0,0,1,.92.92Z"/><path class="cls-1" d="M8.29,5.52H5.52a.92.92,0,0,0,0,1.84H8.29a.92.92,0,1,0,0-1.84"/><path class="cls-1" d="M20.25,5.52H12a.92.92,0,0,0,0,1.84h8.28a.92.92,0,1,0,0-1.84"/><path class="cls-1" d="M8.29,12H5.52a.92.92,0,1,0,0,1.84H8.29a.92.92,0,0,0,0-1.84"/><path class="cls-1" d="M20.25,12H12a.92.92,0,0,0,0,1.84h8.28a.92.92,0,1,0,0-1.84"/><path class="cls-1" d="M8.29,18.41H5.52a.92.92,0,0,0,0,1.84H8.29a.92.92,0,1,0,0-1.84"/><path class="cls-1" d="M20.25,18.41H12a.92.92,0,0,0,0,1.84h8.28a.92.92,0,0,0,0-1.84"/></g></g></svg>