<svg xmlns="http://www.w3.org/2000/svg" viewBox="0 0 104 77.72"><defs><style>.cls-1{fill:#E74F1C;}</style></defs><title>Asset 5</title><g id="Layer_2" data-name="Layer 2"><g id="Layer_1-2" data-name="Layer 1"><path class="cls-1" d="M99.89,10V3.48l-1-.37A54.32,54.32,0,0,0,80.65,0c-11,0-20.48,3.35-28.18,10C44.75,3.35,35.28,0,24.27,0A54.32,54.32,0,0,0,6,3.11l-.94.37V9.55c-3.11.59-5,1.63-5,3.33V75.4H46.05a10.34,10.34,0,0,0,13.05,0H104V12.88c0-1.39-1.57-2.3-4.11-2.85M52,70.48c-3.83-1.58-17-6.59-30.18-6.59A36.74,36.74,0,0,0,8,66.27V5.55A53.86,53.86,0,0,1,24.27,3c10.14,0,18.84,3.07,25.94,9V48.26L52,46.32Zm44.93-4.2a38.76,38.76,0,0,0-14.44-2.55c-13.19,0-25.73,5.05-29.49,6.72V46.32l1.74,1.94V12c7.1-6,15.8-9,25.94-9A53.79,53.79,0,0,1,96.9,5.55Z"/></g></g></svg>