<svg xmlns="http://www.w3.org/2000/svg" viewBox="0 0 25.77 25.77"><defs><style>.cls-1{fill:#E74F1B;}</style></defs><title>Asset 3</title><g id="Layer_2" data-name="Layer 2"><g id="Layer_1-2" data-name="Layer 1"><rect class="cls-1" x="12.04" y="14.95" width="1.65" height="1.46"/><path class="cls-1" d="M20.52,8.17l-7.3-3.5a.8.8,0,0,0-.71,0L5.31,8.14a.89.89,0,0,0-.46.92v7.81a.84.84,0,0,0,.46.75l7.19,3.47a.86.86,0,0,0,.72,0l7.24-3.47a.85.85,0,0,0,.47-.75v-8a.84.84,0,0,0-.41-.71h0M12.86,6.33l5.42,2.6-5.41,3-5.4-3Zm6.42,10L13.69,19V17.57H12V19L6.5,16.35V10.29l6,3.28a.89.89,0,0,0,.81,0l6-3.29Z"/><path class="cls-1" d="M12.87,1.66A11.17,11.17,0,0,1,19.67,4h-1V5.73h3.17a.89.89,0,0,0,.88-1l-.31-3.2-1.77.18.1,1A12.91,12.91,0,0,0,12.87,0,13,13,0,0,0,0,12.88a12.77,12.77,0,0,0,1.28,5.61l1.5-.72A11.22,11.22,0,0,1,12.87,1.66"/><path class="cls-1" d="M24.49,7.28,23,8A11.21,11.21,0,0,1,6.11,21.81h1V20.05H3.92A.88.88,0,0,0,3,21l.32,3.2L5.12,24l-.1-1A12.88,12.88,0,0,0,24.49,7.28"/></g></g></svg>