<svg xmlns="http://www.w3.org/2000/svg" viewBox="0 0 104 104"><defs><style>.cls-1{fill:#282254;}</style></defs><title>Asset 4</title><g id="Layer_2" data-name="Layer 2"><g id="Layer_1-2" data-name="Layer 1"><path class="cls-1" d="M88.05,104a2.12,2.12,0,1,0,0-4.24H16A2.12,2.12,0,0,0,16,104Z"/><path class="cls-1" d="M101.88,90.88H88.46V63.64a2.12,2.12,0,0,0-1.16-1.89l-21.73-11V2.12A2.12,2.12,0,0,0,62.49.23L39.59,11.87a2.12,2.12,0,0,0-1.16,1.89V34.53l-21.73,11a2.12,2.12,0,0,0-1.16,1.89V90.88H2.12a2.12,2.12,0,0,0,0,4.24h99.76a2.12,2.12,0,0,0,0-4.24m-63.45,0H19.78V48.77l18.65-9.49ZM61.33,52h0V90.88H42.68V15.06L61.33,5.58ZM84.22,90.88H65.57V55.46l18.65,9.48Z"/><path class="cls-1" d="M71.34,87.92a1.59,1.59,0,0,0,1.59-1.59V63.22a1.59,1.59,0,0,0-3.18,0V86.33a1.59,1.59,0,0,0,1.59,1.59"/><path class="cls-1" d="M78.45,87.92A1.59,1.59,0,0,0,80,86.33V69.94a1.59,1.59,0,0,0-3.18,0V86.33a1.59,1.59,0,0,0,1.59,1.59"/><path class="cls-1" d="M32.66,87.92a1.59,1.59,0,0,0,1.59-1.59V47.56a1.59,1.59,0,0,0-3.18,0V86.33a1.59,1.59,0,0,0,1.59,1.59"/><path class="cls-1" d="M25.55,87.92a1.59,1.59,0,0,0,1.59-1.59v-32a1.59,1.59,0,1,0-3.18,0V86.33a1.59,1.59,0,0,0,1.59,1.59"/><path class="cls-1" d="M55.84,87.92a1.59,1.59,0,0,0,1.59-1.59v-72a1.59,1.59,0,1,0-3.18,0v72a1.59,1.59,0,0,0,1.59,1.59"/><path class="cls-1" d="M48.16,87.92a1.59,1.59,0,0,0,1.59-1.59V21.43a1.59,1.59,0,0,0-3.18,0v64.9a1.59,1.59,0,0,0,1.59,1.59"/></g></g></svg>