<svg xmlns="http://www.w3.org/2000/svg" viewBox="0 0 104 90.86"><defs><style>.cls-1{fill:#282254;}</style></defs><title>Asset 6</title><g id="Layer_2" data-name="Layer 2"><g id="Layer_1-2" data-name="Layer 1"><polygon class="cls-1" points="51.95 90.59 40.28 90.59 42.3 23.41 50.08 23.41 51.95 90.59"/><polygon class="cls-1" points="40.39 87.02 40.28 90.59 51.95 90.59 51.85 87.02 40.39 87.02"/><polygon class="cls-1" points="98.86 90.86 40.42 90.86 57.22 34.95 79.72 34.95 98.86 90.86"/><rect class="cls-1" x="39.89" y="85.26" width="64.11" height="5.59"/><rect class="cls-1" x="55.26" y="32.14" width="26.56" height="5.6"/><path class="cls-1" d="M39.49,85.26H4.19L15.59,0H28.28ZM9,81.07H34.7L24.61,4.19H19.26Z"/><path class="cls-1" d="M43.33,87.36a3.48,3.48,0,0,1-3.49,3.49H3.5a3.49,3.49,0,1,1,0-7H39.84a3.49,3.49,0,0,1,3.49,3.49"/><polygon class="cls-1" points="7.1 79.92 6 77.13 30.98 67.3 8.84 52.57 29.09 39.92 13.39 20.17 26.07 5.63 28.33 7.59 17.29 20.26 33.53 40.68 14.36 52.65 37.41 67.99 7.1 79.92"/></g></g></svg>