<svg xmlns="http://www.w3.org/2000/svg" viewBox="0 0 72 104.38"><defs><style>.cls-1{fill:#E74F1C;}</style></defs><title>Asset 7</title><g id="Layer_2" data-name="Layer 2"><g id="Layer_1-2" data-name="Layer 1"><path class="cls-1" d="M33.45,75.61V67a7.65,7.65,0,0,1-5.09-7.19,2.56,2.56,0,0,1,5.11,0,2.53,2.53,0,0,0,5.06,0,2.56,2.56,0,0,1,5.11,0A7.66,7.66,0,0,1,38.55,67v8.6a2.55,2.55,0,0,1-5.1,0M12.62,9.49A9.51,9.51,0,0,1,22.12,0H49.89a9.5,9.5,0,0,1,2.55,18.64V34.79a2.42,2.42,0,0,1,0,.47L50.06,47.72c-.8,4.26-3.72,7-7.45,7H29.39c-3.73,0-6.65-2.76-7.45-7L19.61,35.26a2.42,2.42,0,0,1,0-.47V18.64a9.53,9.53,0,0,1-7-9.15M47.34,32.87H24.67v1.68L27,46.78c.09.48.62,2.86,2.43,2.86H42.61c1.81,0,2.35-2.38,2.44-2.86l2.29-12.23Zm0-13.88H24.67v8.78H47.33Zm-29.6-9.5a4.4,4.4,0,0,0,4.39,4.4H49.89a4.4,4.4,0,0,0,0-8.79H22.12a4.4,4.4,0,0,0-4.39,4.39m40,71.17a2.56,2.56,0,0,0-2.55,2.56V99.28H16.81V83.22a2.56,2.56,0,1,0-5.11,0v18.61a2.55,2.55,0,0,0,2.55,2.55h43.5a2.55,2.55,0,0,0,2.55-2.55V83.22a2.56,2.56,0,0,0-2.55-2.56M71,71.37,53.16,57.78a2.55,2.55,0,0,0-3.09,4.06L66.9,74.66v27.17a2.55,2.55,0,0,0,5.1,0V73.4a2.53,2.53,0,0,0-1-2M26.27,89a2.55,2.55,0,0,0-2.55,2.55v.48a2.55,2.55,0,0,0,5.1,0v-.48A2.55,2.55,0,0,0,26.27,89m2.55-9.73a2.55,2.55,0,0,0-5.1,0v.48a2.55,2.55,0,0,0,5.1,0ZM45.73,94.62a2.55,2.55,0,0,0,2.55-2.55v-.48a2.55,2.55,0,0,0-5.1,0v.48a2.55,2.55,0,0,0,2.55,2.55m2.55-15.31a2.55,2.55,0,0,0-5.1,0v.48a2.55,2.55,0,0,0,5.1,0ZM22.43,58.26a2.56,2.56,0,0,0-3.58-.48L1,71.37a2.53,2.53,0,0,0-1,2v28.43a2.55,2.55,0,0,0,5.1,0V74.66L21.94,61.84a2.55,2.55,0,0,0,.49-3.58"/></g></g></svg>