<svg xmlns="http://www.w3.org/2000/svg" viewBox="0 0 23.06 23.78"><defs><style>.cls-1{fill:#E74F1B;}</style></defs><title>Asset 4</title><g id="Layer_2" data-name="Layer 2"><g id="Layer_1-2" data-name="Layer 1"><path class="cls-1" d="M23.05,19.93v0h0a9.87,9.87,0,0,0-4.14-8,11.2,11.2,0,0,0-3.53-1.54A5.89,5.89,0,0,0,11.56,0,6,6,0,0,0,7,2.14,6,6,0,0,0,6.48,9,5.69,5.69,0,0,0,7.71,10.4l-.47.12a9.65,9.65,0,0,0-5,3.15A10.12,10.12,0,0,0,0,19.46c0,.12,0,.23,0,.35v.07H0a1.91,1.91,0,0,0,1.28,1.83l1.62.58a26,26,0,0,0,8.63,1.47,25.94,25.94,0,0,0,8.62-1.47l1.63-.58h0a1.9,1.9,0,0,0,1.24-1.79M8,8a4.14,4.14,0,0,1,.34-4.7,4.15,4.15,0,0,1,3.18-1.48,4,4,0,0,1,1.37.24A4.15,4.15,0,0,1,15.6,5.9a4.14,4.14,0,0,1-3.25,4l-.23,0H11A4.1,4.1,0,0,1,8,8m11.5,12.57a24.06,24.06,0,0,1-16,0L1.89,20h0a.07.07,0,0,1-.06-.07v-.07a2.53,2.53,0,0,0,0-.28,8.28,8.28,0,0,1,1.8-4.75,7.64,7.64,0,0,1,4.08-2.54A14.26,14.26,0,0,1,11,11.78l.55,0c.21,0,.42,0,.62,0a11.18,11.18,0,0,1,5.71,1.64,8.06,8.06,0,0,1,3.35,6.5h0v0a.09.09,0,0,1-.06.07h0Z"/></g></g></svg>