<svg xmlns="http://www.w3.org/2000/svg" viewBox="0 0 104 92.49"><defs><style>.cls-1{fill:#282254;}</style></defs><title>Asset 4</title><g id="Layer_2" data-name="Layer 2"><g id="Layer_1-2" data-name="Layer 1"><path class="cls-1" d="M27.32,0C34.57,0,41,2.24,45.83,6.7a26.37,26.37,0,0,1,6,8.52,24.57,24.57,0,0,1,6-8.59C62.59,2.21,69,0,76.68,0a26.3,26.3,0,0,1,19.4,8.73A31,31,0,0,1,104,29.59c0,6.25-3.61,13.36-9,20.59a2.2,2.2,0,0,1-.56.73C86,62.14,73.49,73.53,63.82,82.4c-4,3.65-7.54,6.84-10,9.29a2.61,2.61,0,0,1-3.72,0v0c-2.7-2.7-6.42-6.1-10.55-9.88C26.68,69.92,9.57,54.24,2.88,40.36a3,3,0,0,1-.42-.84A24.24,24.24,0,0,1,0,29.59,30.87,30.87,0,0,1,7.92,8.73,26.25,26.25,0,0,1,27.32,0m15,10.59c-3.86-3.54-9-5.33-15-5.33a21,21,0,0,0-15.54,7A25.6,25.6,0,0,0,5.26,29.59,17.77,17.77,0,0,0,6.7,36.22H28.44l5.89-14.45a2.63,2.63,0,0,1,3.43-1.43,2.54,2.54,0,0,1,1.51,1.58l11.4,31.13L58,36.22a2.59,2.59,0,0,1,3.44-1.37,2.67,2.67,0,0,1,1.4,1.48l4.24,10h24.3c4.42-6.06,7.33-11.88,7.33-16.76a25.44,25.44,0,0,0-6.56-17.32,20.91,20.91,0,0,0-15.5-7c-6.31,0-11.53,1.72-15.32,5.22s-6,8.45-6.76,15.22a2.62,2.62,0,0,1-5.2.07C48.49,19,45.93,14,42.29,10.59m18,67.92c8.42-7.68,19-17.39,27-26.9H65.39A2.62,2.62,0,0,1,63,50l-2.59-6.1L52.91,61A2.61,2.61,0,0,1,48,61L36.64,30.05l-4,9.64a2.6,2.6,0,0,1-2.46,1.79H9.33c7.15,12,22.23,25.81,33.83,36.43,3.3,3,6.31,5.82,8.84,8.28,2.31-2.25,5.15-4.84,8.27-7.68m-21-56.59a2.75,2.75,0,0,1-.07,1.85"/></g></g></svg>