<svg xmlns="http://www.w3.org/2000/svg" viewBox="0 0 18.76 27.5"><defs><style>.cls-1{fill:#272453;}.cls-2{fill:#e6501b;}</style></defs><title>login</title><g id="Layer_2" data-name="Layer 2"><g id="Layer_1-2" data-name="Layer 1"><path class="cls-1" d="M15.59,0H6.43A3.18,3.18,0,0,0,3.26,3.2V7.44a.66.66,0,0,0,1.31,0V3.21A1.86,1.86,0,0,1,5.1,1.87a1.89,1.89,0,0,1,1.33-.56h9.16a1.88,1.88,0,0,1,1.86,1.9v21.1a1.86,1.86,0,0,1-1.86,1.89H6.43a1.88,1.88,0,0,1-1.86-1.89V20.1a.66.66,0,0,0-1.31,0v4.21A3.18,3.18,0,0,0,6.43,27.5h9.16a3.18,3.18,0,0,0,3.17-3.19V3.21A3.19,3.19,0,0,0,15.59,0"/><path class="cls-2" d="M11.66,13.67v-.06s0,0,0,0v0a.06.06,0,0,0,0,0s0,0,0,0l0,0s0,0,0,0l0,0s0,0,0,0,0,0,0,0l0,0L9.1,10.49a.65.65,0,0,0-1,.84l1.51,1.78h-9a.65.65,0,0,0,0,1.3h9L8.1,16.19a.66.66,0,0,0,1,.85l2.41-2.85,0,0,0,0a0,0,0,0,0,0,0l0,0s0,0,0,0l0,0s0,0,0,0a.06.06,0,0,0,0,0v0s0,0,0,0v-.08a.24.24,0,0,0,0-.12Z"/></g></g></svg>