<svg xmlns="http://www.w3.org/2000/svg" viewBox="0 0 104 84.35"><defs><style>.cls-1{fill:#E74F1C;}</style></defs><title>Asset 8</title><g id="Layer_2" data-name="Layer 2"><g id="Layer_1-2" data-name="Layer 1"><path class="cls-1" d="M101.89,0H2.12A2.12,2.12,0,0,0,0,2.12V19.54a2.12,2.12,0,0,0,2.12,2.11H8.49a12.51,12.51,0,0,0,3.39,6.62v54A2.11,2.11,0,0,0,14,84.35H90a2.11,2.11,0,0,0,2.11-2.12v-54a12.51,12.51,0,0,0,3.39-6.62h6.38A2.12,2.12,0,0,0,104,19.54V2.12A2.12,2.12,0,0,0,101.89,0M38.16,80.12H24.62V57.34a23.82,23.82,0,0,1,13.54,0Zm49.73,0H42.39V55.94a2.12,2.12,0,0,0-1.16-1.88c-5.06-2.58-14.63-2.58-19.69,0a2.11,2.11,0,0,0-1.15,1.88V80.12H16.11v-49a12.29,12.29,0,0,0,4.71.93,12.48,12.48,0,0,0,10.39-5.56,12.5,12.5,0,0,0,20.79,0,12.5,12.5,0,0,0,20.79,0A12.48,12.48,0,0,0,83.18,32a12.29,12.29,0,0,0,4.71-.93Zm11.88-62.7h-6.2a2.11,2.11,0,0,0-2.11,2.12,8.28,8.28,0,0,1-16.56,0,2.12,2.12,0,1,0-4.23,0,8.28,8.28,0,0,1-16.55,0,2.12,2.12,0,1,0-4.23,0,8.28,8.28,0,0,1-16.56,0,2.12,2.12,0,1,0-4.23,0,8.28,8.28,0,0,1-16.55,0,2.12,2.12,0,0,0-2.12-2.12H4.23V4.23H99.77Z"/><path class="cls-1" d="M81.42,40.23H49a2.11,2.11,0,0,0-2.12,2.11V66.12A2.12,2.12,0,0,0,49,68.24H81.42a2.12,2.12,0,0,0,2.12-2.12V42.34a2.11,2.11,0,0,0-2.12-2.11M79.31,64H51.15V44.46H79.31Z"/><path class="cls-1" d="M29.43,66.41a2.11,2.11,0,0,0-2.11,2.11v.75a2.12,2.12,0,0,0,4.23,0v-.75a2.12,2.12,0,0,0-2.12-2.11"/><path class="cls-1" d="M56.23,52.36H73.68a2.12,2.12,0,1,0,0-4.23H56.23a2.12,2.12,0,0,0,0,4.23"/><path class="cls-1" d="M56.23,60.34H73.68a2.12,2.12,0,0,0,0-4.24H56.23a2.12,2.12,0,0,0,0,4.24"/><path class="cls-1" d="M20.59,12.82H83.41a2.12,2.12,0,0,0,0-4.23H20.59a2.12,2.12,0,0,0,0,4.23"/></g></g></svg>