<?xml version="1.0" encoding="UTF-8"?>
<svg xmlns="http://www.w3.org/2000/svg" xmlns:xlink="http://www.w3.org/1999/xlink" width="150pt" height="36pt" viewBox="0 0 150 36" version="1.1">
<g id="surface1">
<path style=" stroke:none;fill-rule:nonzero;fill:rgb(255,255,255);fill-opacity:1;" d="M 33.300781 32.308594 C 33.128906 32.308594 32.964844 32.234375 32.855469 32.101562 C 32.746094 31.972656 32.699219 31.796875 32.730469 31.628906 L 36.445312 11.976562 C 36.878906 9.5 37.8125 7.074219 39.648438 5.472656 C 41.074219 4.285156 42.878906 3.652344 44.734375 3.6875 C 45.527344 3.671875 46.316406 3.773438 47.082031 3.996094 C 47.367188 4.085938 47.53125 4.382812 47.460938 4.675781 L 46.855469 7.246094 C 46.824219 7.398438 46.730469 7.53125 46.59375 7.613281 C 46.460938 7.695312 46.300781 7.71875 46.148438 7.679688 C 45.714844 7.570312 45.269531 7.519531 44.820312 7.523438 C 42.625 7.523438 41.433594 9.550781 40.988281 12.050781 L 40.941406 12.304688 C 40.910156 12.472656 40.953125 12.644531 41.0625 12.777344 C 41.171875 12.910156 41.335938 12.984375 41.503906 12.984375 L 44.136719 12.984375 C 44.308594 12.984375 44.46875 13.0625 44.578125 13.195312 C 44.6875 13.324219 44.734375 13.5 44.703125 13.667969 L 44.242188 16.078125 C 44.191406 16.339844 43.96875 16.53125 43.703125 16.546875 L 40.660156 16.546875 C 40.382812 16.546875 40.148438 16.746094 40.09375 17.015625 L 37.296875 31.855469 C 37.246094 32.125 37.007812 32.320312 36.734375 32.320312 Z M 33.300781 32.308594 "/>
<path style=" stroke:none;fill-rule:nonzero;fill:rgb(255,255,255);fill-opacity:1;" d="M 57.699219 30.789062 C 57.734375 31.035156 57.609375 31.273438 57.386719 31.378906 C 55.347656 32.277344 53.148438 32.734375 50.921875 32.722656 C 45.585938 32.722656 43.035156 29.429688 43.035156 24.730469 C 43.035156 18.882812 47.316406 12.542969 53.9375 12.542969 C 57.742188 12.542969 60.175781 14.746094 60.179688 17.964844 C 60.179688 22.816406 55.246094 24.457031 48.113281 24.375 C 47.957031 24.371094 47.804688 24.433594 47.691406 24.546875 C 47.582031 24.660156 47.523438 24.8125 47.527344 24.972656 C 47.5625 25.707031 47.738281 26.425781 48.046875 27.089844 C 48.808594 28.410156 50.199219 29.070312 52.003906 29.070312 C 53.589844 29.074219 55.164062 28.757812 56.621094 28.128906 C 56.785156 28.058594 56.976562 28.066406 57.132812 28.15625 C 57.289062 28.246094 57.394531 28.402344 57.414062 28.582031 Z M 53.347656 16.003906 C 50.800781 16.003906 49.007812 18.050781 48.242188 20.148438 C 48.179688 20.328125 48.203125 20.527344 48.3125 20.683594 C 48.421875 20.839844 48.601562 20.933594 48.789062 20.933594 C 53.097656 20.90625 55.8125 20.203125 55.8125 18.007812 C 55.8125 16.765625 54.828125 16.003906 53.347656 16.003906 Z M 53.347656 16.003906 "/>
<path style=" stroke:none;fill-rule:nonzero;fill:rgb(255,255,255);fill-opacity:1;" d="M 60.710938 32.308594 C 60.539062 32.308594 60.378906 32.234375 60.269531 32.101562 C 60.160156 31.96875 60.113281 31.796875 60.144531 31.628906 L 62.261719 20.386719 C 62.738281 17.902344 62.996094 15.246094 63.195312 13.480469 C 63.230469 13.191406 63.476562 12.972656 63.765625 12.972656 L 66.636719 12.972656 C 66.800781 12.972656 66.953125 13.042969 67.0625 13.160156 C 67.171875 13.28125 67.226562 13.441406 67.210938 13.601562 C 67.101562 14.71875 66.992188 15.847656 66.835938 17.039062 L 66.964844 17.039062 C 68.28125 14.4375 70.382812 12.535156 73.003906 12.535156 L 73.308594 12.535156 C 73.484375 12.539062 73.648438 12.617188 73.757812 12.753906 C 73.867188 12.894531 73.910156 13.070312 73.871094 13.242188 L 73.195312 16.632812 C 73.140625 16.914062 72.886719 17.105469 72.605469 17.089844 C 72.476562 17.089844 72.339844 17.089844 72.191406 17.089844 C 68.917969 17.089844 66.835938 20.433594 66.070312 24.539062 L 64.714844 31.851562 C 64.660156 32.121094 64.421875 32.316406 64.144531 32.308594 Z M 60.710938 32.308594 "/>
<path style=" stroke:none;fill-rule:nonzero;fill:rgb(255,255,255);fill-opacity:1;" d="M 72.808594 32.308594 C 72.640625 32.308594 72.476562 32.234375 72.367188 32.101562 C 72.257812 31.96875 72.214844 31.796875 72.246094 31.628906 L 74.359375 20.386719 C 74.820312 17.914062 75.085938 15.25 75.285156 13.492188 C 75.316406 13.199219 75.5625 12.984375 75.855469 12.984375 L 78.726562 12.984375 C 78.890625 12.984375 79.042969 13.054688 79.152344 13.171875 C 79.261719 13.292969 79.316406 13.453125 79.300781 13.613281 C 79.191406 14.730469 79.078125 15.855469 78.925781 17.050781 L 79.042969 17.050781 C 80.359375 14.449219 82.472656 12.546875 85.097656 12.546875 L 85.417969 12.546875 C 85.589844 12.546875 85.757812 12.628906 85.867188 12.765625 C 85.972656 12.902344 86.015625 13.082031 85.976562 13.253906 L 85.292969 16.628906 C 85.238281 16.90625 84.992188 17.101562 84.707031 17.089844 C 84.582031 17.089844 84.441406 17.089844 84.296875 17.089844 C 81.023438 17.089844 78.9375 20.433594 78.175781 24.539062 L 76.8125 31.851562 C 76.765625 32.125 76.527344 32.324219 76.25 32.320312 Z M 72.808594 32.308594 "/>
<path style=" stroke:none;fill-rule:nonzero;fill:rgb(255,255,255);fill-opacity:1;" d="M 99.183594 30.789062 C 99.21875 31.035156 99.089844 31.273438 98.867188 31.378906 C 96.828125 32.277344 94.628906 32.734375 92.402344 32.722656 C 87.066406 32.722656 84.515625 29.429688 84.515625 24.730469 C 84.515625 18.882812 88.796875 12.542969 95.417969 12.542969 C 99.222656 12.542969 101.65625 14.746094 101.664062 17.964844 C 101.664062 22.816406 96.730469 24.457031 89.59375 24.375 C 89.433594 24.371094 89.28125 24.433594 89.171875 24.546875 C 89.0625 24.660156 89.003906 24.8125 89.007812 24.972656 C 89.039062 25.707031 89.21875 26.425781 89.53125 27.089844 C 90.289062 28.410156 91.679688 29.070312 93.484375 29.070312 C 95.070312 29.074219 96.640625 28.757812 98.101562 28.128906 C 98.265625 28.058594 98.457031 28.066406 98.613281 28.15625 C 98.769531 28.246094 98.875 28.402344 98.898438 28.582031 Z M 94.828125 16.003906 C 92.277344 16.003906 90.488281 18.050781 89.722656 20.148438 C 89.65625 20.328125 89.683594 20.527344 89.792969 20.683594 C 89.902344 20.839844 90.078125 20.933594 90.269531 20.933594 C 94.578125 20.898438 97.277344 20.191406 97.277344 18.007812 C 97.277344 16.765625 96.308594 16.003906 94.828125 16.003906 Z M 94.828125 16.003906 "/>
<path style=" stroke:none;fill-rule:nonzero;fill:rgb(255,255,255);fill-opacity:1;" d="M 110.523438 7.878906 C 110.710938 7.832031 110.914062 7.882812 111.058594 8.019531 C 111.199219 8.15625 111.265625 8.355469 111.226562 8.546875 L 108.183594 24.363281 C 107.980469 25.261719 107.863281 26.179688 107.832031 27.097656 C 107.832031 28.136719 108.304688 28.832031 109.554688 28.832031 C 109.847656 28.832031 110.140625 28.832031 110.417969 28.804688 C 110.589844 28.796875 110.753906 28.863281 110.871094 28.984375 C 110.988281 29.109375 111.042969 29.277344 111.023438 29.449219 L 110.71875 31.972656 C 110.695312 32.203125 110.539062 32.394531 110.316406 32.460938 C 109.457031 32.65625 108.574219 32.75 107.691406 32.742188 C 104.519531 32.742188 103.109375 30.972656 103.109375 28.761719 C 103.125 27.550781 103.265625 26.34375 103.527344 25.164062 L 105.03125 17.226562 C 105.0625 17.058594 105.019531 16.886719 104.910156 16.753906 C 104.800781 16.621094 104.636719 16.542969 104.464844 16.542969 L 103.269531 16.542969 C 103.097656 16.542969 102.933594 16.464844 102.824219 16.332031 C 102.714844 16.199219 102.671875 16.027344 102.703125 15.855469 L 103.164062 13.453125 C 103.214844 13.179688 103.449219 12.984375 103.726562 12.984375 L 105.382812 12.984375 C 105.660156 12.984375 105.898438 12.789062 105.949219 12.515625 L 106.578125 9.160156 C 106.621094 8.933594 106.789062 8.757812 107.011719 8.703125 Z M 110.523438 7.878906 "/>
<path style=" stroke:none;fill-rule:nonzero;fill:rgb(91.372549%,30.588235%,10.588235%);fill-opacity:1;" d="M 111.671875 12.984375 L 114.023438 12.984375 C 114.195312 12.984375 114.355469 13.058594 114.464844 13.191406 C 114.574219 13.328125 114.621094 13.5 114.585938 13.671875 L 114.117188 16.078125 C 114.0625 16.347656 113.828125 16.542969 113.554688 16.542969 L 111.195312 16.542969 C 111.019531 16.542969 110.851562 16.460938 110.742188 16.324219 C 110.632812 16.1875 110.59375 16.007812 110.632812 15.835938 L 111.105469 13.429688 C 111.167969 13.167969 111.402344 12.984375 111.671875 12.984375 Z M 111.671875 12.984375 "/>
<path style=" stroke:none;fill-rule:nonzero;fill:rgb(255,255,255);fill-opacity:1;" d="M 127.972656 30.789062 C 128.007812 31.035156 127.878906 31.273438 127.65625 31.378906 C 125.621094 32.277344 123.417969 32.734375 121.195312 32.722656 C 115.859375 32.722656 113.304688 29.429688 113.304688 24.730469 C 113.304688 18.882812 117.589844 12.542969 124.210938 12.542969 C 128.015625 12.542969 130.449219 14.746094 130.457031 17.964844 C 130.457031 22.816406 125.523438 24.457031 118.386719 24.375 C 118.226562 24.371094 118.074219 24.433594 117.964844 24.546875 C 117.855469 24.660156 117.792969 24.8125 117.800781 24.972656 C 117.832031 25.707031 118.007812 26.425781 118.316406 27.089844 C 119.078125 28.410156 120.472656 29.070312 122.277344 29.070312 C 123.859375 29.082031 125.425781 28.769531 126.882812 28.152344 C 127.046875 28.078125 127.238281 28.089844 127.394531 28.175781 C 127.550781 28.265625 127.65625 28.425781 127.679688 28.605469 Z M 123.617188 16.003906 C 121.070312 16.003906 119.28125 18.050781 118.515625 20.148438 C 118.449219 20.328125 118.476562 20.527344 118.585938 20.683594 C 118.691406 20.839844 118.871094 20.933594 119.0625 20.933594 C 123.359375 20.898438 126.082031 20.191406 126.082031 18.007812 C 126.082031 16.765625 125.097656 16.003906 123.617188 16.003906 Z M 123.617188 16.003906 "/>
<path style=" stroke:none;fill-rule:nonzero;fill:rgb(255,255,255);fill-opacity:1;" d="M 149.929688 20.546875 C 149.929688 27.109375 145.367188 32.746094 138.777344 32.746094 C 133.90625 32.746094 130.890625 29.382812 130.890625 24.78125 C 130.890625 18.230469 135.445312 12.546875 142.035156 12.546875 C 147.226562 12.546875 149.929688 16.273438 149.929688 20.546875 Z M 135.664062 24.660156 C 135.664062 27.3125 137.070312 29.175781 139.421875 29.175781 C 142.863281 29.175781 145.15625 24.394531 145.15625 20.566406 C 145.15625 18.5625 144.261719 16.121094 141.46875 16.121094 C 137.808594 16.121094 135.65625 21.027344 135.664062 24.660156 Z M 135.664062 24.660156 "/>
<path style=" stroke:none;fill-rule:nonzero;fill:rgb(91.372549%,30.588235%,10.588235%);fill-opacity:1;" d="M 25.316406 14.039062 L 3.46875 0.445312 C 2.683594 -0.046875 1.675781 0 0.941406 0.566406 C 0.203125 1.132812 -0.101562 2.097656 0.167969 2.984375 L 4.75 18 L 0.167969 33.015625 C -0.0976562 33.902344 0.210938 34.863281 0.945312 35.429688 C 1.675781 35.992188 2.683594 36.042969 3.46875 35.554688 L 25.316406 21.957031 C 26.679688 21.105469 27.507812 19.609375 27.507812 18 C 27.507812 16.386719 26.679688 14.890625 25.316406 14.039062 Z M 25.316406 14.039062 "/>
<path style=" stroke:none;fill-rule:nonzero;fill:rgb(62.745098%,22.352941%,1.176471%);fill-opacity:1;" d="M 0.167969 33.015625 C -0.0976562 33.902344 0.210938 34.863281 0.945312 35.429688 C 1.675781 35.992188 2.683594 36.042969 3.46875 35.554688 L 5.476562 34.324219 C 7.570312 33.019531 8.527344 30.472656 7.808594 28.109375 L 4.742188 18.015625 Z M 0.167969 33.015625 "/>
</g>
</svg>
